<svg xmlns="http://www.w3.org/2000/svg" width="54" height="54">
  <g fill="none" fill-rule="evenodd">
    <path stroke="#FFF" stroke-width="4" d="M2 2h49.999v50H2z" opacity=".298"/>
    <g fill="#FFF" fill-rule="nonzero">
      <path d="M27.34 30.971c-.012-1.028-.161-2.099-.733-2.978-.565-.87-1.44-1.566-2.434-1.875.1.031.588-.376.685-.444 2.132-1.476 2.33-4.582 1.18-6.74-1.238-2.324-4.197-2.713-6.576-2.67H9.925v21.28h9.658c.77 0 1.558-.054 2.319-.171a7.987 7.987 0 0 0 1.889-.556 6.19 6.19 0 0 0 2.58-2.127c.756-1.082.982-2.419.968-3.719zM14.862 19.972h4.227c1.669 0 3.03.17 3.334 1.737.07.362.096.838.012 1.2-.04.168-.098.33-.174.478-.441.86-1.149 1.253-2.273 1.253h-5.126v-4.668zm8.107 11.766c-.253 1.11-1.147 1.826-2.24 2.004-.251.041-.516.07-.77.07h-5.094v-5.62l5.175.003c1.15 0 1.72.31 2.231.8.609.584.822 1.474.765 2.29-.01.152-.033.304-.067.453zM32.226 17.094h8.662v4.274h-8.662z"/>
      <path d="M44.234 29.15c-.005-.168-.006-.336-.014-.504-.008-.173-.025-.346-.04-.519a9.157 9.157 0 0 0-.397-1.982 6.875 6.875 0 0 0-.174-.47l-.044-.108c-.85-1.977-2.54-3.661-4.699-4.088-2.296-.455-4.944-.268-6.857 1.177-1.823 1.378-2.791 3.606-3.01 5.836-.27 2.77.904 5.799 3.16 7.478.597.444 1.3.8 1.999 1.055 1.812.66 3.773.674 5.558-.096 1.845-.796 3.49-2.312 4.191-4.228a1.91 1.91 0 0 0 .034-.103c.015-.05.035-.102.045-.154l.004-.026c.002-.011-.008-.01-.02-.01H40.06c-.082 0-.164-.021-.232.034-.064.052-.113.165-.16.233-.788 1.12-1.95 1.642-3.32 1.501a4.487 4.487 0 0 1-1.022-.227 3.194 3.194 0 0 1-1.512-1.124c-.376-.527-.54-1.18-.623-1.813a5.669 5.669 0 0 1-.046-.496c-.001-.034.001-.051.015-.06.01-.005.026-.007.05-.007h10.475a74.04 74.04 0 0 0 .285 0l.118-.001c.04 0 .082-.031.1-.064.033-.06.033-.138.035-.205.004-.175-.002-.349.009-.524.01-.168.009-.336.003-.505zm-4.163-1.32h-6.916s.19-3.25 3.579-3.25c3.388 0 3.337 3.25 3.337 3.25z"/>
    </g>
  </g>
</svg>