<svg xmlns="http://www.w3.org/2000/svg" width="55" height="54">
  <g fill="none" fill-rule="evenodd" stroke="#FFF">
    <path stroke-width="4" d="M2.71 2h49.999v50h-50z" opacity=".298"/>
    <path stroke-width="3" d="M27.778 13.494c-7.497 0-13.575 6.078-13.575 13.575 0 7.497 6.078 13.575 13.575 13.575 7.497 0 13.575-6.078 13.575-13.575 0-7.497-6.078-13.575-13.575-13.575zm2.843 14.16c-8.414 1.86-11.736 9.077-11.736 9.077s3.322-7.217 11.736-9.078a53.825 53.825 0 0 0-1.771-3.926c-3.343 1.14-7.925 1.967-14.158 1.892 6.233.075 10.815-.752 14.158-1.892-3.004-6-5.994-9.079-5.994-9.079s2.99 3.078 5.994 9.079c6.736-2.298 8.434-5.864 8.434-5.864s-1.698 3.566-8.434 5.864a53.815 53.815 0 0 1 1.771 3.926c2.891-.639 6.383-.646 10.548.489-4.165-1.135-7.657-1.128-10.548-.489z"/>
  </g>
</svg>